<svg xmlns="http://www.w3.org/2000/svg" viewBox="0 0 41.58 42.42"><defs><style>.cls-1{fill:#fff;}.cls-2{fill:#d42027;}.cls-3{fill:#fee1c4;}.cls-4{fill:#f594a4;}</style></defs><g id="Layer_2" data-name="Layer 2"><g id="Layer_1-2" data-name="Layer 1"><path class="cls-1" d="M6.31,42.29h-1v-.14H4.76v-1h.59v-.68a1.7,1.7,0,0,0-.71.72,2.47,2.47,0,0,0-.25,1.06h-1a3.38,3.38,0,0,1,.66-2,2.2,2.2,0,0,1,1.84-.87h.45Z"/><path class="cls-1" d="M8.8,42.29H7a2.09,2.09,0,0,1,0-2.85H8.8v.88H7.6a1.13,1.13,0,0,0,0,1.09H8.8Z"/><path class="cls-1" d="M9.9,42.29h-1V39.44h1Z"/><path class="cls-1" d="M12.93,41.58a.66.66,0,0,1-.23.51.94.94,0,0,1-.62.2H10.75V41.4h.77c.09,0,.13,0,.13-.12s0-.13-.13-.13h-.77v-.57h.75c.07,0,.11,0,.11-.1a.1.1,0,0,0-.11-.11h-.75v-.93h1.16a1,1,0,0,1,.67.23.68.68,0,0,1,.29.54.72.72,0,0,1-.37.61A.8.8,0,0,1,12.93,41.58Z"/><path class="cls-1" d="M15.69,40.87a1.42,1.42,0,0,1-1.42,1.42H13V39.44h1.23a1.38,1.38,0,0,1,1,.42A1.4,1.4,0,0,1,15.69,40.87Zm-.89,0a.53.53,0,0,0-.16-.39.54.54,0,0,0-.38-.15H14v1.08h.3a.55.55,0,0,0,.54-.54Z"/><path class="cls-1" d="M18.59,40.32h-.88a1.1,1.1,0,0,1,.53.5,1.52,1.52,0,0,1,.21.78,1.37,1.37,0,0,1-.18.69H16.54v-.88h.9a1.08,1.08,0,0,1-.53-.49,1.5,1.5,0,0,1-.22-.79,1.31,1.31,0,0,1,.18-.69h1.72Z"/><path class="cls-1" d="M22,40.86a1.46,1.46,0,0,1-.48,1.1,1.69,1.69,0,0,1-2.32,0,1.46,1.46,0,0,1-.48-1.1,1.49,1.49,0,0,1,.48-1.11,1.72,1.72,0,0,1,2.32,0A1.49,1.49,0,0,1,22,40.86Zm-1.14.06a.43.43,0,0,0-.15-.34.47.47,0,0,0-.35-.15.45.45,0,0,0-.35.15.43.43,0,0,0-.15.34.46.46,0,0,0,.15.34.48.48,0,0,0,.35.14.5.5,0,0,0,.35-.14A.46.46,0,0,0,20.85,40.92Z"/><path class="cls-1" d="M23.87,42.29H22.1V39.44h1v2h.79Z"/><path class="cls-1" d="M26.31,41.24a1.09,1.09,0,0,1-.34.81,1.16,1.16,0,0,1-1.64,0,1.13,1.13,0,0,1-.34-.81v-1.8h1v1.74a.2.2,0,0,0,.06.14.19.19,0,0,0,.13,0,.22.22,0,0,0,.14,0,.2.2,0,0,0,.06-.14V39.44h1Z"/><path class="cls-1" d="M28.51,40.32H28v2H27v-2h-.55v-.88h2.08Z"/><path class="cls-1" d="M29.6,42.29h-1V39.44h1Z"/><path class="cls-1" d="M33,40.86a1.43,1.43,0,0,1-.49,1.1,1.58,1.58,0,0,1-1.15.46A1.61,1.61,0,0,1,30.2,42a1.46,1.46,0,0,1-.48-1.1,1.49,1.49,0,0,1,.48-1.11,1.64,1.64,0,0,1,1.16-.45,1.62,1.62,0,0,1,1.15.45A1.47,1.47,0,0,1,33,40.86Zm-1.14.06a.43.43,0,0,0-.15-.34.47.47,0,0,0-.35-.15.45.45,0,0,0-.35.15.43.43,0,0,0-.15.34.46.46,0,0,0,.15.34.48.48,0,0,0,.35.14.5.5,0,0,0,.35-.14A.46.46,0,0,0,31.86,40.92Z"/><path class="cls-1" d="M36.06,42.29h-1v-.23a2.13,2.13,0,0,0-.34-.93,1.72,1.72,0,0,0-.69-.62v1.78h-1V39.44h.45A2.19,2.19,0,0,1,35.1,40v-.55h1Z"/><path class="cls-1" d="M38.22,40.32h-.88a1,1,0,0,1,.52.5,1.52,1.52,0,0,1,.21.78,1.47,1.47,0,0,1-.17.69H36.17v-.88h.9a1.06,1.06,0,0,1-.54-.49,1.58,1.58,0,0,1-.21-.79,1.31,1.31,0,0,1,.18-.69h1.72Z"/><path class="cls-2" d="M32,37.75a2.62,2.62,0,0,1-2.15-1,2.57,2.57,0,0,1-.54-2,2.52,2.52,0,0,1,1-1.81,15.41,15.41,0,0,0,5.06-17.16v0a15.72,15.72,0,0,0-5.63-7.53A15.51,15.51,0,0,0,21,5.36h-.32a15.51,15.51,0,0,0-8.81,2.87,15.72,15.72,0,0,0-5.63,7.53v0a15.45,15.45,0,0,0,5.06,17.16,2.7,2.7,0,0,1,.5,3.79,2.62,2.62,0,0,1-2.15,1A2.47,2.47,0,0,1,8,37.17a20.81,20.81,0,0,1,.75-33.3A21,21,0,0,1,20.6,0H21A20.8,20.8,0,0,1,33.62,37.17a2.47,2.47,0,0,1-1.64.58Z"/><path class="cls-3" d="M31.92,37.77a2.66,2.66,0,0,1-2.26-1.3,2.49,2.49,0,0,1-.31-2.06,8.73,8.73,0,0,0,.24-2A8.83,8.83,0,0,0,29,29.15a8.69,8.69,0,0,0-.82-1.57A9,9,0,0,0,27,26.18,8.51,8.51,0,0,0,25.61,25,8.73,8.73,0,0,0,24,24.23a8.94,8.94,0,0,0-3.24-.62,8.66,8.66,0,0,0-1.6.15,8.53,8.53,0,0,0-1.64.47A8.73,8.73,0,0,0,16,25a8.86,8.86,0,0,0-2.54,2.54,8.69,8.69,0,0,0-.82,1.57A8.55,8.55,0,0,0,12,32.38a8.73,8.73,0,0,0,.24,2,2.72,2.72,0,0,1-2,3.28,2.51,2.51,0,0,1-.62.08A2.72,2.72,0,0,1,7,35.67a13.94,13.94,0,0,1-.39-3.28A14.16,14.16,0,0,1,20.53,18.25h.52A14.14,14.14,0,0,1,34.94,32.39a13.94,13.94,0,0,1-.39,3.28,2.71,2.71,0,0,1-2.63,2.1Z"/><path class="cls-4" d="M30.33,33a2.56,2.56,0,0,0-1,1.82,2.83,2.83,0,0,0,.06,1,3,3,0,0,0,.95,1.44,2.79,2.79,0,0,0,1.68.54h0a2.76,2.76,0,0,0,.65-.07,2.7,2.7,0,0,0,1.92-2,14,14,0,0,0,.39-3.29,12.58,12.58,0,0,0-.63-4.15A15.32,15.32,0,0,1,30.33,33Z"/><path class="cls-4" d="M11.25,33a15.32,15.32,0,0,1-4-4.7,12.85,12.85,0,0,0-.63,4.15A14,14,0,0,0,7,35.7,2.7,2.7,0,0,0,9,37.7a2.93,2.93,0,0,0,2.33-.47,2.69,2.69,0,0,0,.64-.74,2.88,2.88,0,0,0,.31-.7,2.83,2.83,0,0,0,.06-1A2.56,2.56,0,0,0,11.25,33Z"/></g></g></svg>